<svg xmlns="http://www.w3.org/2000/svg" xmlns:xlink="http://www.w3.org/1999/xlink" width="500" zoomAndPan="magnify" viewBox="0 0 375 374.999991" height="500" preserveAspectRatio="xMidYMid meet" version="1.0"><defs><clipPath id="ca65b6d6ee"><path d="M 105.792969 70.164062 L 269.292969 70.164062 L 269.292969 304.914062 L 105.792969 304.914062 Z M 105.792969 70.164062 " clip-rule="nonzero"/></clipPath></defs><rect x="-37.5" width="450" fill="#ffffff" y="-37.499999" height="449.999989" fill-opacity="1"/><rect x="-37.5" width="450" fill="#ff3131" y="-37.499999" height="449.999989" fill-opacity="1"/><g clip-path="url(#ca65b6d6ee)"><path fill="#ffffff" d="M 269.175781 155.179688 C 269.214844 156.964844 269.199219 158.746094 269.128906 160.527344 C 269.058594 162.3125 268.933594 164.089844 268.753906 165.867188 C 268.574219 167.640625 268.34375 169.410156 268.054688 171.167969 C 267.765625 172.929688 267.421875 174.679688 267.027344 176.417969 C 266.628906 178.160156 266.179688 179.882812 265.679688 181.597656 C 265.175781 183.308594 264.621094 185.003906 264.015625 186.679688 C 263.40625 188.359375 262.75 190.015625 262.039062 191.652344 C 261.332031 193.289062 260.570312 194.902344 259.765625 196.492188 C 258.957031 198.085938 258.097656 199.648438 257.195312 201.1875 C 256.289062 202.722656 255.339844 204.230469 254.339844 205.710938 C 253.34375 207.191406 252.300781 208.636719 251.214844 210.050781 C 250.128906 211.46875 249 212.847656 247.828125 214.191406 C 246.65625 215.539062 245.445312 216.847656 244.191406 218.117188 C 242.9375 219.386719 241.648438 220.617188 240.320312 221.808594 C 238.992188 223 237.628906 224.152344 236.230469 225.257812 C 234.832031 226.367188 233.402344 227.429688 231.9375 228.449219 C 230.472656 229.46875 228.976562 230.441406 227.453125 231.367188 C 225.929688 232.292969 224.378906 233.175781 222.800781 234.003906 C 221.222656 234.835938 219.621094 235.621094 217.992188 236.351562 C 216.367188 237.085938 214.71875 237.769531 213.050781 238.398438 C 211.382812 239.03125 209.695312 239.609375 207.992188 240.140625 C 206.289062 240.667969 204.570312 241.140625 202.835938 241.5625 C 201.101562 241.984375 199.355469 242.351562 197.601562 242.667969 C 195.84375 242.980469 194.082031 243.242188 192.308594 243.449219 C 190.535156 243.652344 188.757812 243.804688 186.976562 243.902344 C 185.195312 243.996094 183.414062 244.039062 181.628906 244.027344 C 179.84375 244.011719 178.0625 243.945312 176.285156 243.820312 C 174.503906 243.699219 172.730469 243.519531 170.960938 243.289062 C 169.191406 243.054688 167.433594 242.769531 165.679688 242.429688 C 163.929688 242.085938 162.191406 241.691406 160.464844 241.246094 C 158.738281 240.796875 157.023438 240.296875 155.328125 239.742188 C 153.632812 239.191406 151.957031 238.585938 150.296875 237.929688 L 150.296875 282.542969 C 150.296875 283.269531 150.261719 283.996094 150.191406 284.722656 C 150.117188 285.449219 150.011719 286.167969 149.871094 286.882812 C 149.726562 287.597656 149.550781 288.304688 149.339844 289 C 149.128906 289.699219 148.882812 290.382812 148.605469 291.058594 C 148.324219 291.730469 148.015625 292.390625 147.671875 293.03125 C 147.328125 293.675781 146.953125 294.300781 146.546875 294.90625 C 146.144531 295.511719 145.710938 296.097656 145.246094 296.660156 C 144.785156 297.222656 144.296875 297.761719 143.78125 298.277344 C 143.265625 298.792969 142.726562 299.28125 142.164062 299.746094 C 141.601562 300.207031 141.015625 300.640625 140.410156 301.046875 C 139.804688 301.449219 139.179688 301.824219 138.535156 302.167969 C 137.894531 302.511719 137.234375 302.824219 136.5625 303.101562 C 135.890625 303.378906 135.203125 303.625 134.507812 303.835938 C 133.808594 304.050781 133.101562 304.226562 132.386719 304.367188 C 131.671875 304.511719 130.953125 304.617188 130.226562 304.6875 C 129.503906 304.761719 128.777344 304.796875 128.046875 304.796875 C 127.316406 304.796875 126.589844 304.761719 125.867188 304.6875 C 125.140625 304.617188 124.417969 304.511719 123.703125 304.367188 C 122.988281 304.226562 122.285156 304.050781 121.585938 303.839844 C 120.890625 303.628906 120.203125 303.382812 119.53125 303.101562 C 118.855469 302.824219 118.199219 302.511719 117.554688 302.167969 C 116.914062 301.824219 116.289062 301.453125 115.683594 301.046875 C 115.074219 300.640625 114.492188 300.207031 113.925781 299.746094 C 113.363281 299.285156 112.824219 298.792969 112.308594 298.277344 C 111.792969 297.765625 111.304688 297.222656 110.84375 296.660156 C 110.378906 296.097656 109.945312 295.511719 109.542969 294.90625 C 109.136719 294.300781 108.761719 293.675781 108.417969 293.03125 C 108.074219 292.390625 107.765625 291.730469 107.484375 291.058594 C 107.207031 290.386719 106.960938 289.699219 106.75 289.003906 C 106.539062 288.304688 106.363281 287.597656 106.21875 286.882812 C 106.078125 286.167969 105.96875 285.449219 105.898438 284.722656 C 105.828125 283.996094 105.792969 283.269531 105.792969 282.542969 L 105.792969 197.648438 C 105.792969 196.921875 105.828125 196.195312 105.898438 195.46875 C 105.972656 194.746094 106.078125 194.023438 106.21875 193.308594 C 106.363281 192.597656 106.539062 191.890625 106.75 191.191406 C 106.960938 190.496094 107.207031 189.808594 107.484375 189.136719 C 107.765625 188.464844 108.074219 187.804688 108.417969 187.164062 C 108.761719 186.519531 109.136719 185.898438 109.542969 185.292969 C 109.945312 184.6875 110.378906 184.101562 110.84375 183.539062 C 111.304688 182.976562 111.792969 182.4375 112.308594 181.921875 C 112.824219 181.40625 113.363281 180.917969 113.925781 180.453125 C 114.488281 179.992188 115.074219 179.558594 115.679688 179.152344 C 116.285156 178.75 116.910156 178.375 117.550781 178.03125 C 118.195312 177.6875 118.851562 177.378906 119.523438 177.097656 C 120.199219 176.820312 120.882812 176.574219 121.582031 176.363281 C 122.277344 176.152344 122.984375 175.972656 123.699219 175.832031 C 124.414062 175.691406 125.132812 175.582031 125.855469 175.511719 C 126.582031 175.441406 127.308594 175.40625 128.039062 175.40625 C 128.679688 175.40625 129.3125 175.441406 129.941406 175.496094 C 130.59375 175.441406 131.257812 175.40625 131.933594 175.40625 C 133.585938 175.398438 135.21875 175.578125 136.832031 175.941406 C 138.445312 176.300781 139.996094 176.835938 141.492188 177.546875 C 142.984375 178.257812 144.378906 179.121094 145.675781 180.144531 C 146.976562 181.167969 148.144531 182.324219 149.183594 183.609375 C 150.566406 185.34375 152.078125 186.957031 153.71875 188.457031 C 155.359375 189.953125 157.105469 191.3125 158.957031 192.535156 C 160.808594 193.757812 162.746094 194.828125 164.765625 195.75 C 166.789062 196.667969 168.867188 197.421875 171.007812 198.015625 C 173.148438 198.605469 175.320312 199.027344 177.523438 199.277344 C 179.730469 199.527344 181.941406 199.605469 184.160156 199.507812 C 186.378906 199.410156 188.574219 199.140625 190.75 198.699219 C 192.925781 198.257812 195.054688 197.648438 197.132812 196.871094 C 199.210938 196.09375 201.21875 195.160156 203.152344 194.070312 C 205.085938 192.976562 206.921875 191.742188 208.660156 190.363281 C 210.398438 188.984375 212.019531 187.476562 213.519531 185.839844 C 215.023438 184.207031 216.386719 182.464844 217.617188 180.617188 C 218.84375 178.765625 219.921875 176.832031 220.847656 174.816406 C 221.769531 172.796875 222.53125 170.71875 223.128906 168.582031 C 223.726562 166.441406 224.15625 164.273438 224.414062 162.066406 C 224.671875 159.863281 224.753906 157.648438 224.664062 155.433594 C 223.789062 133.070312 205.402344 115.097656 183.03125 114.714844 C 181.25 114.683594 179.472656 114.765625 177.703125 114.960938 C 175.933594 115.152344 174.183594 115.457031 172.449219 115.871094 C 170.71875 116.285156 169.015625 116.804688 167.351562 117.433594 C 165.683594 118.0625 164.0625 118.792969 162.488281 119.625 C 160.914062 120.457031 159.398438 121.386719 157.941406 122.410156 C 156.484375 123.433594 155.09375 124.542969 153.777344 125.742188 C 152.460938 126.941406 151.222656 128.214844 150.066406 129.570312 C 148.910156 130.925781 147.84375 132.347656 146.863281 133.835938 C 145.867188 135.375 144.695312 136.765625 143.351562 138.015625 C 142.007812 139.261719 140.53125 140.324219 138.921875 141.203125 C 137.3125 142.082031 135.621094 142.753906 133.84375 143.210938 C 132.070312 143.671875 130.265625 143.90625 128.429688 143.914062 L 127.84375 143.914062 C 110.316406 143.914062 99.851562 124.46875 109.421875 109.789062 C 110.675781 107.855469 112.003906 105.976562 113.410156 104.148438 C 114.8125 102.320312 116.285156 100.554688 117.832031 98.84375 C 119.375 97.132812 120.984375 95.488281 122.660156 93.90625 C 124.335938 92.324219 126.070312 90.8125 127.867188 89.371094 C 129.660156 87.925781 131.511719 86.558594 133.414062 85.261719 C 135.320312 83.964844 137.273438 82.746094 139.273438 81.605469 C 141.277344 80.464844 143.320312 79.402344 145.40625 78.425781 C 147.492188 77.445312 149.613281 76.554688 151.769531 75.742188 C 153.925781 74.933594 156.109375 74.210938 158.324219 73.574219 C 160.539062 72.9375 162.777344 72.390625 165.035156 71.933594 C 167.289062 71.476562 169.5625 71.109375 171.851562 70.832031 C 174.136719 70.554688 176.433594 70.367188 178.734375 70.273438 C 181.035156 70.179688 183.335938 70.175781 185.640625 70.261719 C 187.941406 70.351562 190.234375 70.53125 192.523438 70.800781 C 194.8125 71.074219 197.085938 71.433594 199.34375 71.886719 C 201.601562 72.335938 203.839844 72.878906 206.058594 73.507812 C 208.273438 74.136719 210.460938 74.855469 212.621094 75.65625 C 214.777344 76.460938 216.902344 77.351562 218.992188 78.324219 C 221.078125 79.292969 223.125 80.347656 225.128906 81.484375 C 227.132812 82.621094 229.089844 83.832031 231 85.125 C 232.90625 86.414062 234.761719 87.78125 236.558594 89.21875 C 238.359375 90.65625 240.097656 92.164062 241.777344 93.742188 C 243.457031 95.316406 245.074219 96.957031 246.621094 98.664062 C 248.171875 100.367188 249.648438 102.132812 251.058594 103.957031 C 252.46875 105.777344 253.800781 107.652344 255.0625 109.582031 C 256.320312 111.511719 257.5 113.488281 258.605469 115.511719 C 259.707031 117.535156 260.726562 119.597656 261.664062 121.699219 C 262.601562 123.804688 263.457031 125.941406 264.222656 128.113281 C 264.992188 130.285156 265.671875 132.484375 266.265625 134.710938 C 266.859375 136.9375 267.363281 139.183594 267.777344 141.449219 C 268.191406 143.714844 268.515625 145.996094 268.75 148.289062 C 268.984375 150.578125 269.125 152.875 269.175781 155.179688 Z M 269.175781 155.179688 " fill-opacity="1" fill-rule="nonzero"/></g></svg>